HIERARCHY
ROOT Hips
{
	OFFSET 0.000000 0.000000 0.000000
	CHANNELS 6 Xposition Yposition Zposition Zrotation Yrotation Xrotation 
	JOINT LHipJoint
	{
		OFFSET 0.000000 0.000000 0.000000
		CHANNELS 3 Zrotation Yrotation Xrotation
		JOINT LeftUpLeg
		{
			OFFSET 1.363060 -1.794630 0.839290
			CHANNELS 3 Zrotation Yrotation Xrotation
			JOINT LeftLeg
			{
				OFFSET 2.448110 -6.726130 0.000000
				CHANNELS 3 Zrotation Yrotation Xrotation
				JOINT LeftFoot
				{
					OFFSET 2.562200 -7.039590 0.000000
					CHANNELS 3 Zrotation Yrotation Xrotation
					JOINT LeftToeBase
					{
						OFFSET 0.157640 -0.433110 2.322550
						CHANNELS 3 Zrotation Yrotation Xrotation
						End Site
						{
							OFFSET 0.000000 0.000000 0.000000
						}
					}
				}
			}
		}
	}
	JOINT RHipJoint
	{
		OFFSET 0.000000 0.000000 0.000000
		CHANNELS 3 Zrotation Yrotation Xrotation
		JOINT RightUpLeg
		{
			OFFSET -1.305520 -1.794630 0.839290
			CHANNELS 3 Zrotation Yrotation Xrotation
			JOINT RightLeg
			{
				OFFSET -2.542530 -6.985550 0.000000
				CHANNELS 3 Zrotation Yrotation Xrotation
				JOINT RightFoot
				{
					OFFSET -2.568260 -7.056230 0.000000
					CHANNELS 3 Zrotation Yrotation Xrotation
					JOINT RightToeBase
					{
						OFFSET -0.164730 -0.452590 2.363150
						CHANNELS 3 Zrotation Yrotation Xrotation
						End Site
						{
							OFFSET 0.000000 0.000000 0.000000
						}
					}
				}
			}
		}
	}
	JOINT LowerBack
	{
		OFFSET 0.000000 0.000000 0.000000
		CHANNELS 3 Zrotation Yrotation Xrotation
		JOINT Spine
		{
			OFFSET 0.028270 2.035590 -0.193380
			CHANNELS 3 Zrotation Yrotation Xrotation
			JOINT Spine1
			{
				OFFSET 0.056720 2.048850 -0.042750
				CHANNELS 3 Zrotation Yrotation Xrotation
				JOINT Neck
				{
					OFFSET 0.000000 0.000000 0.000000
					CHANNELS 3 Zrotation Yrotation Xrotation
					JOINT Neck1
					{
						OFFSET -0.054170 1.746240 0.172020
						CHANNELS 3 Zrotation Yrotation Xrotation
						JOINT Head
						{
							OFFSET 0.104070 1.761360 -0.123970
							CHANNELS 3 Zrotation Yrotation Xrotation
							End Site
							{
								OFFSET 0.000000 0.000000 0.000000
							}
						}
					}
				}
				JOINT LeftShoulder
				{
					OFFSET 0.000000 0.000000 0.000000
					CHANNELS 3 Zrotation Yrotation Xrotation
					JOINT LeftArm
					{
						OFFSET 3.362410 1.200890 -0.311210
						CHANNELS 3 Zrotation Yrotation Xrotation
						JOINT LeftForeArm
						{
							OFFSET 4.983000 -0.000000 -0.000000
							CHANNELS 3 Zrotation Yrotation Xrotation
							JOINT LeftHand
							{
								OFFSET 3.483560 -0.000000 -0.000000
								CHANNELS 3 Zrotation Yrotation Xrotation
								JOINT LeftFingerBase
								{
									OFFSET 0.000000 0.000000 0.000000
									CHANNELS 3 Zrotation Yrotation Xrotation
									JOINT LeftHandIndex1
									{
										OFFSET 0.715260 -0.000000 -0.000000
										CHANNELS 3 Zrotation Yrotation Xrotation
										End Site
										{
											OFFSET 0.000000 0.000000 0.000000
										}
									}
								}
								JOINT LThumb
								{
									OFFSET 0.000000 0.000000 0.000000
									CHANNELS 3 Zrotation Yrotation Xrotation
									End Site
									{
										OFFSET 0.000000 0.000000 0.000000
									}
								}
							}
						}
					}
				}
				JOINT RightShoulder
				{
					OFFSET 0.000000 0.000000 0.000000
					CHANNELS 3 Zrotation Yrotation Xrotation
					JOINT RightArm
					{
						OFFSET -3.136600 1.374050 -0.404650
						CHANNELS 3 Zrotation Yrotation Xrotation
						JOINT RightForeArm
						{
							OFFSET -5.241900 -0.000000 -0.000000
							CHANNELS 3 Zrotation Yrotation Xrotation
							JOINT RightHand
							{
								OFFSET -3.444170 -0.000000 -0.000000
								CHANNELS 3 Zrotation Yrotation Xrotation
								JOINT RightFingerBase
								{
									OFFSET 0.000000 0.000000 0.000000
									CHANNELS 3 Zrotation Yrotation Xrotation
									JOINT RightHandIndex1
									{
										OFFSET -0.622530 -0.000000 -0.000000
										CHANNELS 3 Zrotation Yrotation Xrotation
										End Site
										{
											OFFSET 0.000000 0.000000 0.000000
										}
									}
								}
								JOINT RThumb
								{
									OFFSET 0.000000 0.000000 0.000000
									CHANNELS 3 Zrotation Yrotation Xrotation
									End Site
									{
										OFFSET 0.000000 0.000000 0.000000
									}
								}
							}
						}
					}
				}
			}
		}
	}
}
MOTION
Frames: 5
Frame Time: 0.008333
-11.898573 17.456414 -21.887371 -76.309028 79.235275 -71.960922 -5.003086 -4.565578 -2.969016 -0.574770 -1.575964 -32.507257 3.738242 12.957392 38.116343 1.204100 -6.090365 -3.743033 0.001100 -0.213100 -0.585400 5.603198 2.105821 1.316631 28.238994 -2.055244 5.556169 0.922494 -3.232390 6.363944 -0.686789 0.876904 -3.125228 -0.988500 -6.328000 17.739100 10.237637 1.149762 5.550859 2.563506 2.161034 -2.656536 2.785366 1.289953 2.117209 -7.796535 -2.557705 -12.501721 3.002294 -1.198101 21.225375 2.510200 -1.098500 14.672500 -0.022841 -1.230838 0.158234 -90.179010 7.829615 14.030694 13.102656 -24.011423 -3.127866 -0.122442 0.079915 0.429427 17.961042 21.622503 6.831700 -7.125000 0.000000 0.000000 -10.908500 52.187200 -1.949100 2.511910 1.224965 -0.474903 78.742486 2.469842 20.287889 -12.133527 20.259014 -2.639182 0.711010 -0.227792 -9.678179 -21.661089 11.379571 -4.758300 7.125000 0.000000 0.000000 3.382300 -17.378800 2.221600 
-11.826908 17.449657 -21.899554 -76.345734 79.279637 -71.815663 -5.044226 -4.612044 -3.001619 -0.625408 -1.683714 -32.491827 3.234214 12.387102 36.073803 1.196477 -5.765194 -3.677422 0.010300 0.654600 1.799000 5.643579 2.099047 1.346862 28.066221 -2.085284 5.801930 0.932142 -3.067165 5.914424 -0.681153 0.851999 -2.861413 -1.125700 -6.739400 18.945500 10.428948 1.256054 5.380073 2.452032 2.269467 -2.664924 2.465585 1.353233 2.195096 -8.400097 -2.886202 -12.532290 3.526610 -1.584996 21.072906 2.968400 -1.309900 14.661100 -0.100149 -1.190613 0.158785 -89.912126 7.864094 14.071691 12.805562 -23.573520 -3.005207 -0.120968 0.070252 0.549504 17.949554 21.628511 6.831600 -7.125000 0.000000 0.000000 -10.927700 52.201800 -1.956500 2.419989 1.250921 -0.459519 78.999107 2.478237 20.566545 -12.193194 20.365100 -2.664466 0.735116 -0.216778 -10.871338 -22.033951 11.484941 -4.895900 7.125000 0.000000 0.000000 3.113700 -17.222600 2.055200 
-11.753502 17.444947 -21.904161 -76.712343 79.354196 -71.978914 -5.095061 -4.663059 -3.038159 -0.659007 -1.808770 -32.503079 2.769073 11.823939 34.114757 1.176245 -5.368747 -3.687249 0.009700 0.636600 1.749500 5.661210 2.073807 1.388724 28.005124 -2.276663 6.324558 0.946142 -2.667291 4.831008 -0.662514 0.764366 -2.306659 -1.228600 -7.029700 19.803300 10.451643 1.281600 5.218714 2.415344 2.274680 -2.687215 2.374424 1.358383 2.211688 -8.584003 -2.931843 -12.539259 3.677177 -1.624214 20.997573 3.105800 -1.341900 14.628800 -0.123330 -1.176624 0.157563 -89.821255 8.047948 14.700112 12.535539 -23.214139 -2.901291 -0.120961 0.067567 0.140121 18.594567 21.805840 7.145800 -7.125000 0.000000 0.000000 -10.356300 52.495800 -1.927400 2.391722 1.255073 -0.459014 78.833425 2.347950 21.435692 -12.348339 20.590835 -2.720718 0.775781 -0.182186 -12.319310 -22.720567 11.231539 -4.958500 7.125000 0.000000 0.000000 2.595600 -17.437700 1.700200 
-11.682042 17.448121 -21.893002 -77.945320 79.107842 -73.252650 -5.145067 -4.692193 -3.058882 -0.201806 -2.037366 -32.193955 2.351495 11.260019 32.202249 1.212353 -5.428718 -3.251844 0.002300 0.310600 0.853500 5.585171 1.991109 1.429546 28.578861 -2.958739 7.963726 0.935016 -1.633531 2.018952 -0.553507 0.169572 -1.235578 -1.116000 -6.711100 18.862200 10.540994 1.054340 5.378370 2.596873 2.017108 -2.669079 2.907132 1.228630 2.211605 -8.930220 -2.779243 -12.804766 3.455008 -1.253414 21.005222 3.048900 -1.259900 14.674000 -0.068165 -1.210988 0.156530 -90.560718 8.085648 14.079733 12.236302 -22.832305 -2.798839 -0.117154 0.081453 0.298052 19.181802 21.857140 7.395300 -7.125000 0.000000 0.000000 -9.788200 52.637200 -1.854000 2.475226 1.262580 -0.458513 78.076319 2.610182 21.233482 -12.239089 20.452031 -2.685054 0.682999 -0.213808 -10.027055 -20.968156 11.289318 -4.549900 7.125000 0.000000 0.000000 3.882300 -17.554800 2.536400 
-11.609967 17.461635 -21.891159 -78.358990 79.211444 -73.618485 -5.187971 -4.722031 -3.072478 -0.227669 -2.241370 -31.993971 1.938384 10.685817 30.311739 1.213662 -5.322074 -2.791902 0.000200 -0.088600 -0.243400 5.603962 1.958440 1.466704 28.550301 -3.345921 8.821562 0.911855 -1.156145 0.713587 -0.475719 -0.279365 -0.961636 -0.892000 -6.019800 16.841900 10.537721 1.408800 5.398896 2.431169 2.472428 -2.688350 2.381238 1.461883 2.116725 -8.042929 -3.120609 -12.558564 3.232832 -2.025306 20.860619 2.657500 -1.459700 14.552500 -0.089755 -1.199525 0.164107 -89.775190 7.968881 14.200587 11.831697 -22.261627 -2.650534 -0.117773 0.071240 1.182171 19.116773 21.765461 7.344100 -7.125000 0.000000 0.000000 -9.821900 52.545200 -1.838200 2.433013 1.259613 -0.462543 78.854033 2.383227 20.207792 -12.372427 20.622528 -2.736953 0.679254 -0.210844 -10.615522 -20.882617 11.517770 -4.617300 7.125000 0.000000 0.000000 3.954500 -17.316900 2.604400 
